# AST/ASF file generated using VICON BodyLanguage
# -----------------------------------------------
:version 1.10
:name VICON
:units
  mass 1.0
  length 0.45
  angle deg
:documentation
   .ast/.asf automatically generated from VICON data using
   VICON BodyBuilder and BodyLanguage model FoxedUp or BRILLIANT.MOD
:root
   order TX TY TZ RX RY RZ
   axis XYZ
   position 0 0 0  
   orientation 0 0 0 
:bonedata
  begin
     id 1 
     name lhipjoint
     direction 0.589753 -0.68606 0.426044 
     length 2.54082 
     axis 0 0 0  XYZ
  end
  begin
     id 2 
     name lfemur
     direction 0.34202 -0.939693 0  
     length 7.04539  
     axis 0 0 20  XYZ
    dof rx ry rz
    limits (-160.0 20.0)
           (-70.0 70.0)
           (-60.0 70.0)
  end
  begin
     id 3 
     name ltibia
     direction 0.34202 -0.939693 0   
     length 7.83772   
     axis 0 0 20   XYZ
    dof rx
    limits (-10.0 170.0)
  end
  begin
     id 4 
     name lfoot
     direction 0.0596604 -0.163915 0.984669   
     length 2.39542   
     axis -90 7.62852e-016 20   XYZ
    dof rx rz
    limits (-45.0 90.0)
           (-70.0 20.0)
  end
  begin
     id 5 
     name ltoes
     direction 1.53514e-011 -4.21954e-011 1   
     length 1.2047   
     axis -90 7.62852e-016 20   XYZ
    dof rx
    limits (-90.0 20.0)
  end
  begin
     id 6 
     name rhipjoint
     direction -0.580585 -0.69168 0.429534   
     length 2.52018  
     axis 0 0 0  XYZ 
  end
  begin
     id 7 
     name rfemur
     direction -0.34202 -0.939693 0   
     length 7.0101   
     axis 0 0 -20   XYZ
    dof rx ry rz
    limits (-160.0 20.0)
           (-70.0 70.0)
           (-70.0 60.0)
  end
  begin
     id 8 
     name rtibia
     direction -0.34202 -0.939693 0   
     length 7.70628   
     axis 0 0 -20   XYZ
    dof rx
    limits (-10.0 170.0)
 end
 begin
     id 9 
     name rfoot
     direction -0.0696237 -0.19129 0.979061   
     length 2.52466  
     axis -90 -7.62852e-016 -20   XYZ
    dof rx rz
    limits (-45.0 90.0)
           (-20.0 70.0)
  end
  begin
     id 10 
     name rtoes
     direction -1.53519e-011 -4.21793e-011 1   
     length 1.266   
     axis -90 -7.62852e-016 -20   XYZ
    dof rx
    limits (-90.0 20.0)
  end
  begin
     id 11 
     name lowerback
     direction 0.00381965 0.995707 -0.0924856   
     length 2.20825   
     axis 0 0 0   XYZ
    dof rx ry rz
    limits (-20.0 45.0)
           (-30.0 30.0)
           (-30.0 30.0)
  end
  begin
     id 12 
     name upperback
     direction -0.0139043 0.999634 -0.0231929   
     length 2.21517   
     axis 0 0 0   XYZ
    dof rx ry rz
    limits (-20.0 45.0)
           (-30.0 30.0)
           (-30.0 30.0)
  end
  begin
     id 13 
     name thorax
     direction -0.0143933 0.999691 0.0202892   
     length 2.22911   
     axis 0 0 0   XYZ
    dof rx ry rz
    limits (-20.0 45.0)
           (-30.0 30.0)
           (-30.0 30.0)
  end
  begin
     id 14 
     name lowerneck
     direction -0.0251153 0.981819 0.188153   
     length 1.61782   
     axis 0 0 0   XYZ
    dof rx ry rz
    limits (-20.0 45.0)
           (-30.0 30.0)
           (-30.0 30.0)
  end
  begin
     id 15 
     name upperneck
     direction 0.0563891 0.969357 -0.239095   
     length 1.64526   
     axis 0 0 0   XYZ
    dof rx ry rz
    limits (-20.0 45.0)
           (-30.0 30.0)
           (-30.0 30.0)
  end
  begin
     id 16
     name head
     direction 0.0208328 0.99459 -0.101773  
     length 1.67436  
     axis 0 0 0   XYZ
    dof rx ry rz
    limits (-20.0 45.0)
           (-30.0 30.0)
           (-30.0 30.0)
  end
  begin
     id 17 
     name lclavicle
     direction 0.917689 0.397224 0.00772059  
     length 3.31102  
     axis 0 0 0   XYZ
    dof ry rz
    limits (-20.0 10.0)
           (0.0 20.0)
  end
  begin
     id 18 
     name lhumerus
     direction 1 -4.4896e-011 2.32308e-027   
     length 5.25537   
     axis 180 -30 -90   XYZ
    dof rx ry rz
    limits (-60.0 90.0)
           (-90.0 90.0)
           (-90.0 90.0)
  end
  begin
     id 19
     name lradius
     direction 1 -4.49005e-011 -2.04271e-027   
     length 3.38855   
     axis 180 -30 -90   XYZ
    dof rx
    limits (-10.0 170.0)
  end
  begin
     id 20
     name lwrist
     direction 1 -4.48892e-011 2.56952e-028   
     length 1.69428   
     axis -5.12785e-016 90 90   XYZ
    dof ry
    limits (-180.0 0.0)
 end
  begin
     id 21 
     name lhand
     direction 1 -4.48966e-011 5.13905e-028   
     length 0.614516   
     axis -3.27915e-016 90 90   XYZ
    dof rx rz
    limits (-90.0 90.0)
           (-45.0 45.0)
  end
  begin
     id 22 
     name lfingers
     direction 1 -4.48979e-011 1.02781e-027   
     length 0.495439   
     axis -6.5583e-016 90 90   XYZ
    dof rx
    limits (0.0 90.0)
  end
  begin
     id 23
     name lthumb
     direction 0.707107 -6.35001e-011 0.707107   
     length 0.711354   
     axis -90 45 2.85299e-015   XYZ
    dof rx rz
    limits (-45.0 45.0)
           (-45.0 45.0)
  end
  begin
     id 24 
     name rclavicle
     direction -0.938556 0.342765 -0.0403177   
     length 3.27019  
     axis 0 0 0   XYZ 
    dof ry rz
    limits (-10.0 20.0)
           (-20.0 0.0)
  end
  begin
     id 25 
     name rhumerus
     direction -1 -4.48966e-011 2.52291e-027  
     length 5.38183   
     axis 180 30 90   XYZ
    dof rx ry rz
    limits (-90.0 60.0)
           (-90.0 90.0)
           (-90.0 90.0)
  end
  begin
     id 26 
     name rradius
     direction -1 -4.4896e-011 1.5797e-027   
     length 3.16988   
     axis 180 30 90   XYZ
    dof rx
    limits (-10.0 170.0)
  end
  begin
     id 27 
     name rwrist
     direction -1 -4.48947e-011 2.56952e-028   
     length 1.58494   
     axis -5.12785e-016 -90 -90   XYZ
    dof ry
    limits (-180.0 0.0)
  end
  begin
     id 28
     name rhand
     direction -1 -4.49098e-011 5.13905e-028   
     length 0.637679   
     axis -3.27915e-016 -90 -90   XYZ
    dof rx rz
    limits (-90.0 90.0)
           (-45.0 45.0)
  end
  begin
     id 29
     name rfingers
     direction -1 -4.49026e-011 1.02781e-027   
     length 0.514113   
     axis -6.5583e-016 -90 -90   XYZ
    dof rx
    limits (0.0 90.0)
  end
  begin
     id 30
     name rthumb
     direction -0.707107 -6.3491e-011 0.707107   
     length 0.738167   
     axis -90 -45 -2.85299e-015   XYZ
    dof rx rz
    limits (-45.0 45.0)
           (-45.0 45.0)
  end
:hierarchy
  begin
    root lhipjoint rhipjoint lowerback
    lhipjoint lfemur
    lfemur ltibia
    ltibia lfoot
    lfoot ltoes
    rhipjoint rfemur
    rfemur rtibia
    rtibia rfoot
    rfoot rtoes
    lowerback upperback
    upperback thorax
    thorax lowerneck lclavicle rclavicle
    lowerneck upperneck
    upperneck head
    lclavicle lhumerus
    lhumerus lradius
    lradius lwrist
    lwrist lhand lthumb
    lhand lfingers
    rclavicle rhumerus
    rhumerus rradius
    rradius rwrist
    rwrist rhand rthumb
    rhand rfingers
  end

#!OML:ASF H:\Swim\Project 1\Capture day 1\Session 1\swimmer.ASF
:FULLY-SPECIFIED
:DEGREES
2443
root 5.59208 11.5764 20.9016 82.3403 -5.74721 0.85478
lowerback 9.41875 -0.751154 5.71317
upperback -4.27305 -1.16692 -9.44962
thorax -10.3954 -1.41431 -13.7681
lowerneck -10.1267 -11.1859 -13.6136
upperneck 2.75602 -14.2374 14.1241
head 4.48333 -6.74124 5.34574
rclavicle 5.96354e-015 8.61732e-014
rhumerus 369.101 58.1399 328.204
rradius 82.5169
rwrist -47.9886
rhand 11.2801 -1.19515
rfingers 7.12502
rthumb 36.3395 -387.428
lclavicle 5.96354e-015 8.61732e-014
lhumerus 63.1714 28.62 -9.06809
lradius 51.0632
lwrist 9.13767
lhand 7.98882 -704.567
lfingers 7.12502
lthumb 33.2164 42.3874
rfemur -13.053 5.91321 23.0399
rtibia 35.5064
rfoot -9.85624 -11.4536
rtoes -5.35637
lfemur -19.5125 -12.5415 -19.9343
ltibia 37.5709
lfoot -6.35009 13.3615
ltoes 1.56821
2444
root 5.60831 11.5832 20.909 82.4257 -5.89617 0.663909
lowerback 9.41597 -1.07927 5.19963
upperback -4.3702 -1.679 -9.247
thorax -10.6155 -1.63613 -13.1053
lowerneck -10.8896 -10.6733 -13.1069
upperneck 3.01169 -13.507 13.6418
head 4.51131 -6.35954 5.17327
rclavicle -6.75868e-015 8.77634e-014
rhumerus 367.68 57.7243 327.19
rradius 83.9535
rwrist -47.7298
rhand 11.8253 -1.08698
rfingers 7.12502
rthumb 36.8555 -387.189
lclavicle -6.75868e-015 8.77634e-014
lhumerus 64.5485 28.2777 -7.26324
lradius 49.2214
lwrist 7.66362
lhand 4.73394 -703.948
lfingers 7.12502
lthumb 30.1162 43.6179
rfemur -12.973 5.37888 22.9549
rtibia 35.5776
rfoot -8.93747 -10.692
rtoes -5.66135
lfemur -19.4464 -12.9954 -19.8561
ltibia 37.3978
lfoot -7.06473 14.3006
ltoes 2.37606
2445
root 5.62524 11.5905 20.9178 82.5313 -6.04625 0.465106
lowerback 9.4152 -1.42864 4.69537
upperback -4.46884 -2.21868 -9.03882
thorax -10.8324 -1.86871 -12.4379
lowerneck -11.6129 -10.1294 -12.6187
upperneck 3.18541 -12.7448 13.2594
head 4.5203 -5.96288 5.04096
rclavicle 4.77083e-015 -3.97569e-015
rhumerus 366.357 57.2541 326.33
rradius 85.4272
rwrist -47.4599
rhand 12.3107 -0.927781
rfingers 7.12502
rthumb 37.3145 -386.91
lclavicle 4.77083e-015 -3.97569e-015
lhumerus 65.6257 27.952 -5.67083
lradius 47.6001
lwrist 6.37782
lhand 1.34601 -703.308
lfingers 7.12502
lthumb 26.879 44.801
rfemur -12.9197 4.85898 22.8677
rtibia 35.67
rfoot -8.05718 -9.93016
rtoes -5.95177
lfemur -19.3925 -13.4982 -19.7827
ltibia 37.2085
lfoot -7.87048 15.2506
ltoes 3.22685
2446
root 5.64285 11.5983 20.9278 82.6594 -6.20256 0.263085
lowerback 9.41616 -1.79787 4.19493
upperback -4.57143 -2.78456 -8.8212
thorax -11.0466 -2.11079 -11.758
lowerneck -12.3057 -9.54503 -12.0653
upperneck 3.29916 -11.9374 12.8215
head 4.49906 -5.54881 4.88807
rclavicle 2.14687e-014 6.02318e-014
rhumerus 365.125 56.7349 325.623
rradius 86.9383
rwrist -47.165
rhand 12.7354 -0.726084
rfingers 7.12502
rthumb 37.7159 -386.602
lclavicle 2.14687e-014 6.02318e-014
lhumerus 66.4107 27.6232 -4.33658
lradius 46.1618
lwrist 5.30637
lhand -2.15118 -702.641
lfingers 7.12502
lthumb 23.5284 45.9401
rfemur -12.901 4.39146 22.7755
rtibia 35.7835
rfoot -7.22203 -9.19548
rtoes -6.17996
lfemur -19.3507 -14.098 -19.7201
ltibia 37.0064
lfoot -8.79873 16.233
ltoes 4.26444
2447
root 5.66081 11.6063 20.939 82.7947 -6.35876 0.058581
lowerback 9.42938 -2.18292 3.70314
upperback -4.66606 -3.36942 -8.59335
thorax -11.2484 -2.35808 -11.0684
lowerneck -12.9755 -8.95573 -11.4964
upperneck 3.35685 -11.13 12.3717
head 4.46312 -5.13818 4.72924
rclavicle -3.57812e-014 2.32578e-014
rhumerus 363.974 56.1568 325.059
rradius 88.477
rwrist -46.7902
rhand 13.0872 -0.472511
rfingers 7.12502
rthumb 38.0482 -386.259
lclavicle -3.57812e-014 2.32578e-014
lhumerus 66.9288 27.308 -3.26668
lradius 44.8773
lwrist 4.44457
lhand -5.65559 -701.99
lfingers 7.12502
lthumb 20.1634 46.9834
rfemur -12.9011 3.99971 22.6889
rtibia 35.9117
rfoot -6.43658 -8.50419
rtoes -6.33662
lfemur -19.3079 -14.7627 -19.6631
ltibia 36.7994
lfoot -9.81147 17.2112
ltoes 5.40962
2448
root 5.6789 11.6144 20.9509 82.9443 -6.50467 -0.150669
lowerback 9.4427 -2.57409 3.22101
upperback -4.75295 -3.9586 -8.34795
thorax -11.4257 -2.60276 -10.3645
lowerneck -13.6337 -8.37214 -10.9281
upperneck 3.38495 -10.3368 11.9254
head 4.42613 -4.73655 4.56947
rclavicle -2.54444e-014 4.57205e-014
rhumerus 362.873 55.5122 324.625
rradius 90.0405
rwrist -46.3537
rhand 13.3388 -0.195235
rfingers 7.12502
rthumb 38.2858 -385.916
lclavicle -2.54444e-014 4.57205e-014
lhumerus 67.2175 27.0082 -2.45123
lradius 43.7202
lwrist 3.78288
lhand -9.0678 -701.368
lfingers 7.12502
lthumb 16.8812 47.9182
rfemur -12.93 3.71342 22.6215
rtibia 36.0484
rfoot -5.69866 -7.8767
rtoes -6.41798
lfemur -19.27 -15.531 -19.597
ltibia 36.5946
lfoot -10.96 18.1877
ltoes 6.8196
2449
root 5.69695 11.6227 20.9635 83.1113 -6.64418 -0.367218
lowerback 9.44926 -2.9607 2.74266
upperback -4.83233 -4.5382 -8.08845
thorax -11.5712 -2.83803 -9.65068
lowerneck -14.2803 -7.80664 -10.3946
upperneck 3.41482 -9.5767 11.5483
head 4.40504 -4.34991 4.43251
rclavicle 1.11319e-014 2.34566e-014
rhumerus 361.775 54.7954 324.278
rradius 91.6127
rwrist -45.8558
rhand 13.4719 0.102308
rfingers 7.12502
rthumb 38.4114 -385.584
lclavicle 1.11319e-014 2.34566e-014
lhumerus 67.3277 26.7326 -1.84694
lradius 42.6785
lwrist 3.28833
lhand -12.2388 -700.784
lfingers 7.12502
lthumb 13.8269 48.7361
rfemur -12.9954 3.54945 22.5698
rtibia 36.19
rfoot -4.999 -7.32626
rtoes -6.37469
lfemur -19.2418 -16.3753 -19.5243
ltibia 36.4013
lfoot -12.2261 19.1281
ltoes 8.43986
2450
root 5.71503 11.6309 20.9771 83.2893 -6.77356 -0.583372
lowerback 9.44806 -3.33366 2.27545
upperback -4.90519 -5.09539 -7.82289
thorax -11.6848 -3.05951 -8.94467
lowerneck -14.89 -7.26803 -9.92141
upperneck 3.45832 -8.8617 11.2717
head 4.40188 -3.98322 4.33218
rclavicle 0 9.54166e-015
rhumerus 360.597 53.9975 323.945
rradius 93.1855
rwrist -45.3026
rhand 13.4785 0.409751
rfingers 7.12502
rthumb 38.4176 -385.275
lclavicle 0 9.54166e-015
lhumerus 67.3312 26.4755 -1.39457
lradius 41.7383
lwrist 2.95296
lhand -15.0321 -700.268
lfingers 7.12502
lthumb 11.1338 49.4168
rfemur -13.0937 3.52376 22.5379
rtibia 36.334
rfoot -4.35175 -6.87707
rtoes -6.25345
lfemur -19.2191 -17.2384 -19.4445
ltibia 36.222
lfoot -13.5366 19.9892
ltoes 10.0266
2451
root 5.73404 11.6389 20.99 83.4202 -6.8974 -0.763082
lowerback 9.48741 -3.69895 1.82672
upperback -4.95523 -5.63858 -7.56564
thorax -11.7827 -3.27312 -8.26434
lowerneck -15.4365 -6.75902 -9.50328
upperneck 3.50249 -8.1955 11.0889
head 4.40609 -3.63905 4.26642
rclavicle 1.59028e-015 -2.82274e-014
rhumerus 359.277 53.1257 323.574
rradius 94.7519
rwrist -44.7085
rhand 13.3113 0.755895
rfingers 7.12502
rthumb 38.2598 -384.972
lclavicle 1.59028e-015 -2.82274e-014
lhumerus 67.2639 26.235 -1.06377
lradius 40.8971
lwrist 2.77022
lhand -17.3627 -699.826
lfingers 7.12502
lthumb 8.88532 49.9668
rfemur -13.1704 3.57361 22.5127
rtibia 36.4811
rfoot -3.80068 -6.49538
rtoes -6.11409
lfemur -19.14 -18.1524 -19.3905
ltibia 36.0593
lfoot -14.8856 20.7607
ltoes 11.6373
2452
root 5.75355 11.6463 21.0037 83.5492 -7.02522 -0.915519
lowerback 9.5094 -4.0442 1.40118
upperback -4.99792 -6.15213 -7.33087
thorax -11.849 -3.47363 -7.63391
lowerneck -15.8893 -6.2824 -9.13714
upperneck 3.52838 -7.58079 10.9883
head 4.40472 -3.32012 4.23159
rclavicle -6.20208e-014 -4.81059e-014
rhumerus 357.749 52.1847 323.112
rradius 96.3188
rwrist -44.0612
rhand 12.9511 1.16809
rfingers 7.12502
rthumb 37.9196 -384.653
lclavicle -6.20208e-014 -4.81059e-014
lhumerus 67.17 26 -0.830029
lradius 40.1423
lwrist 2.74753
lhand -19.1838 -699.474
lfingers 7.12502
lthumb 7.12777 50.3862
rfemur -13.2769 3.68568 22.4823
rtibia 36.6305
rfoot -3.35503 -6.17186
rtoes -6.02611
lfemur -19.0466 -19.0033 -19.358
ltibia 35.9039
lfoot -16.1517 21.3977
ltoes 13.0227
2453
root 5.77349 11.6528 21.0187 83.6771 -7.15369 -1.04441
lowerback 9.51052 -4.36767 1.01885
upperback -5.03461 -6.63229 -7.12993
thorax -11.8893 -3.6625 -7.07876
lowerneck -16.2538 -5.83004 -8.78494
upperneck 3.54593 -7.00712 10.9081
head 4.39487 -3.02339 4.20282
rclavicle 9.54166e-015 3.45885e-014
rhumerus 355.976 51.1811 322.522
rradius 97.8916
rwrist -43.3158
rhand 12.3879 1.67661
rfingers 7.12502
rthumb 37.3875 -384.287
lclavicle 9.54166e-015 3.45885e-014
lhumerus 67.0591 25.7568 -0.707845
lradius 39.4752
lwrist 2.90718
lhand -20.5254 -699.191
lfingers 7.12502
lthumb 5.83254 50.7083
rfemur -13.4166 3.82186 22.447
rtibia 36.7806
rfoot -3.019 -5.87419
rtoes -5.99128
lfemur -18.9313 -19.7469 -19.3454
ltibia 35.7454
lfoot -17.2521 21.9062
ltoes 14.119
2454
root 5.79206 11.6584 21.0369 83.895 -7.29779 -1.20356
lowerback 9.39839 -4.65032 0.660411
upperback -5.08928 -7.05406 -6.95569
thorax -11.871 -3.82722 -6.59025
lowerneck -16.5635 -5.39934 -8.4378
upperneck 3.55963 -6.46525 10.8013
head 4.37941 -2.74567 4.1638
rclavicle 9.54166e-015 3.18055e-015
rhumerus 353.97 50.1364 321.827
rradius 99.4777
rwrist -42.4644
rhand 11.5827 2.34615
rfingers 7.12502
rthumb 36.6259 -383.814
lclavicle 9.54166e-015 3.18055e-015
lhumerus 66.9247 25.5068 -0.695579
lradius 38.8876
lwrist 3.18546
lhand -21.3992 -698.953
lfingers 7.12502
lthumb 4.98891 50.9679
rfemur -13.6855 3.99656 22.3946
rtibia 36.9262
rfoot -2.79822 -5.58816
rtoes -6.12365
lfemur -18.869 -20.3438 -19.3284
ltibia 35.5677
lfoot -18.1845 22.3139
ltoes 15.0614
2455
root 5.80835 11.6631 21.0599 84.2458 -7.46069 -1.433
lowerback 9.13594 -4.87739 0.318375
upperback -5.1761 -7.39683 -6.80269
thorax -11.7859 -3.9584 -6.16607
lowerneck -16.817 -4.99681 -8.12352
upperneck 3.55065 -5.95856 10.6918
head 4.35448 -2.48809 4.12619
rclavicle 1.90833e-014 -3.97569e-015
rhumerus 351.728 49.0573 321.03
rradius 101.074
rwrist -41.4534
rhand 10.5851 3.19623
rfingers 7.12502
rthumb 35.6811 -383.198
lclavicle 1.90833e-014 -3.97569e-015
lhumerus 66.7768 25.2515 -0.75633
lradius 38.3726
lwrist 3.48285
lhand -21.8196 -698.759
lfingers 7.12502
lthumb 4.58292 51.1716
rfemur -14.1287 4.19154 22.32
rtibia 37.0627
rfoot -2.69769 -5.27949
rtoes -6.51373
lfemur -18.8972 -20.7104 -19.2888
ltibia 35.3636
lfoot -18.865 22.6362
ltoes 15.7268
2456
root 5.82196 11.6674 21.0874 84.7284 -7.64097 -1.73693
lowerback 8.72779 -5.04903 -0.0197153
upperback -5.29368 -7.65949 -6.6561
thorax -11.6339 -4.05414 -5.78362
lowerneck -17.0421 -4.62497 -7.84678
upperneck 3.52525 -5.48409 10.545
head 4.32443 -2.25037 4.0796
rclavicle 1.59028e-014 6.20208e-014
rhumerus 349.28 47.9613 320.18
rradius 102.676
rwrist -40.3008
rhand 9.42652 4.23039
rfingers 7.12502
rthumb 34.5822 -382.422
lclavicle 1.59028e-014 6.20208e-014
lhumerus 66.6204 24.9912 -0.845324
lradius 37.9096
lwrist 3.71088
lhand -21.8501 -698.571
lfingers 7.12502
lthumb 4.55356 51.3604
rfemur -14.7376 4.44421 22.2304
rtibia 37.1868
rfoot -2.71942 -4.99766
rtoes -7.07202
lfemur -19.0125 -20.8379 -19.228
ltibia 35.1301
lfoot -19.2467 22.9158
ltoes 16.1133
2457
root 5.8333 11.6716 21.1174 85.3048 -7.84176 -2.09308
lowerback 8.21522 -5.17304 -0.373191
upperback -5.43487 -7.85379 -6.50748
thorax -11.4311 -4.11788 -5.41766
lowerneck -17.2678 -4.28842 -7.61448
upperneck 3.53154 -5.0486 10.3711
head 4.30959 -2.03382 4.02745
rclavicle 3.18055e-015 -4.13472e-014
rhumerus 346.644 46.8493 319.301
rradius 104.282
rwrist -39.0619
rhand 8.21665 5.35986
rfingers 7.12502
rthumb 33.433 -381.548
lclavicle 3.18055e-015 -4.13472e-014
lhumerus 66.4669 24.721 -0.905613
lradius 37.4791
lwrist 3.80073
lhand -21.5488 -698.396
lfingers 7.12502
lthumb 4.84447 51.5287
rfemur -15.4686 4.7612 22.1228
rtibia 37.3008
rfoot -2.85714 -4.77594
rtoes -7.55315
lfemur -19.184 -20.7393 -19.1719
ltibia 34.8797
lfoot -19.3371 23.1459
ltoes 16.3071
